# xmcd CD database file generated by OrangeCD 5.2
#
# Track frame offsets:
#	150
#	18533
#	32575
#	44158
#	58290
#	74805
#	87858
#	99460
#	117490
#	137078
#
# Disc length: 1948 seconds
#
# Revision: 2
# Processed by: cddbd v1.5.1PL0 Copyright (c) Steve Scherf et al.
# Submitted via: OrangeCD 5.2
#
DISCID=97079a0a
DTITLE=Ella Fitzgerald and Chick Webb - Ella Swings Chick Swings
DYEAR=1994
DGENRE=Jazz
TTITLE0=Oh Johnny! Oh Johnny! Oh!
TTITLE1=Blue Lou
TTITLE2=Diga Diga Do
TTITLE3=I Want The Water With The Water
TTITLE4=Limehouse Blues
TTITLE5=T'Ain' t What You Do
TTITLE6=Traffic Jam
TTITLE7=I'm Confessin' (That I Love You)
TTITLE8=Breakin' Down
TTITLE9=Swing Out
EXTD=YEAR: 1994
EXTT0=
EXTT1=
EXTT2=
EXTT3=
EXTT4=
EXTT5=
EXTT6=
EXTT7=
EXTT8=
EXTT9=
PLAYORDER=
